<svg width="1920" height="1080" viewBox="0 0 1920 1080" fill="none" xmlns="http://www.w3.org/2000/svg">
<path d="M-41.6277 566.086C-79.9641 502.056 -23.7928 401.469 10.8865 360.623L43.4954 384.923C46.0834 389.577 31.5308 404.73 11.0847 425.219C-9.36129 445.709 -4.88875 478.578 -0.0967255 492.451C3.63043 502.056 18.752 524.146 49.4211 535.672C80.0901 547.197 79.2382 568.22 74.9786 577.291C52.0833 600.235 -3.29139 630.116 -41.6277 566.086Z" fill="#FA3465"/>
<path d="M75.2588 92.9157C75.2588 102.587 67.3441 110.428 57.5809 110.428C45.7957 114.564 31.0642 106.723 31.0642 97.0517C31.0642 87.38 47.8178 75.4036 57.5809 75.4036C67.3441 75.4036 75.2588 83.244 75.2588 92.9157Z" fill="#FBBB57"/>
<path d="M-10.9802 1000.22C27.8167 1014.55 19.6346 1023.66 -3.22082 1023.66C-26.499 1027.57 -49.7771 1017.15 -65.2963 992.408C-75.6418 984.595 -79.0986 948.133 -56.2432 948.133C-27.7922 948.133 -44.6042 976.782 -10.9802 1000.22Z" fill="#FD345E"/>
<path fill-rule="evenodd" clip-rule="evenodd" d="M71.1292 366.657C111.188 346.493 308.773 435.851 223.661 621.044C175.899 724.971 60.3441 785.465 151.247 881.635C299.616 1038.6 434.125 760.42 845.5 1005.5C865.389 1017.35 827.111 1077.24 804 1161C799.451 1177.49 404.567 1106.72 377.252 1066.57C331.507 999.326 273.353 1037.98 253.294 1026.02C210.898 1000.75 143.798 1025.73 92.6994 988.664C-50.5884 884.738 86.6438 736.992 149.909 621.044C218.383 495.549 89.618 422.498 71.1292 456.624C49.5815 496.395 103.459 489.494 132.758 520.22C169.736 558.999 87.9644 738.616 14.6346 694.886C-68.176 645.502 -121.783 710.735 -197.278 564.928C-264.065 435.94 -196.201 327.984 -163.845 346.598C-148.711 355.305 -190.592 471.358 -144.573 501.607C-124.168 515.019 -147.655 389.925 -78.3229 278.243C0.254333 132.436 204.901 145.651 175.627 -4.80968C191.003 -7.63653 262.622 -4.29029 308.844 -4.28991C308.844 40.6943 312.615 110.589 214.417 182.073C71.1292 251.874 55.5571 374.496 71.1292 366.657Z" fill="#00C381"/>
<path fill-rule="evenodd" clip-rule="evenodd" d="M14.5089 -18.764C84.2663 -14.9201 47.0382 58.0179 79.5674 64.2864C163.479 80.4564 101.254 -18.7639 160.116 -18.7639C231.522 -18.7639 226.244 118 14.5089 198C-38.7087 218.107 -100.835 230.059 -120.255 252.324C-143.49 278.962 -177.569 324.405 -191.51 349.476C-224.174 408.219 -224.268 488.937 -203.902 550.049C-148.137 717.378 63.6481 639.315 40.0084 725.041C-14.8801 924.087 64.1619 1061.71 271.645 1026.41C406.583 1003.45 403.311 1087.52 409.507 1118.86C349.096 1118.86 341.351 1118.86 240.665 1118.86C218.979 1084.39 127.587 1013.88 59.4303 1043.65C-0.981201 1129.83 -134.196 1054.62 -97.0197 896.352C-76.8828 832.106 99.7046 683.242 -97.0197 706.747C-134.196 716.149 -286 770.993 -286 531.246C-290.647 473.267 -244.177 346.342 -202.353 288.364C-152.785 200.613 -13.3737 137.934 -4.07965 97.1929C25.3516 64.2864 -83.3292 -24.1553 14.5089 -18.764Z" fill="#0088FE"/>
<path fill-rule="evenodd" clip-rule="evenodd" d="M-71.4632 959.18C-57.4577 960.759 -57.4577 967.073 -40.3406 1000.22C-26.3357 1031.8 17.235 1039.69 9.45454 1042.85C-1.43815 1050.74 -51.2333 1057.05 -85.4676 1014.43C-98.3458 990.752 -98.8441 959.18 -71.4632 959.18Z" fill="#FA3465"/>
<path fill-rule="evenodd" clip-rule="evenodd" d="M0.726607 807.639C66.5593 865.247 -2.17735 919.657 66.5592 986.868C81.081 997.536 118.838 1018.87 88.826 1026.34C58.8143 1033.81 48.1649 984.734 16.2169 968.731C-11.1768 955.01 -3.7044 1017.47 0.726954 1026.34C37.5157 1099.95 36.8115 1037 82 1037C92 1037 150.5 1026.34 212 1088C240.157 1116.23 23.9619 1085.02 0.727029 1085.02C-7.02659 1085.02 -8.95424 989.001 -7.01835 976.199C-1.93963 942.614 -21.1465 788.499 0.726607 807.639Z" fill="#FFF1E4"/>
<path fill-rule="evenodd" clip-rule="evenodd" d="M1096 1137.5C1147.53 1137.5 983.481 1138.52 963 1137.5C822.033 1130.5 1143.49 1158.2 1063 1174.5C942 1199 825.554 1132.63 832 1090.5C846 999 642.433 916.041 608.5 913C502.5 903.5 533 880 294 937.5C57.0003 937.5 125.151 761.412 122 787.5C109.5 891 272.194 872.312 427 777C554.5 698.5 710.316 696.456 796.5 735C1076 860 963.735 1137.5 1096 1137.5Z" fill="#0088FE"/>
<path fill-rule="evenodd" clip-rule="evenodd" d="M71.4576 452.412C91.0407 430.447 130.403 459.358 155 492C183.556 529.895 169.715 595.829 139.076 642.447C84.669 725.228 38.0859 802.023 34.5 864.5C30.3235 937.266 79.1418 1012.1 188.766 1012.1C220.79 1012.1 270.453 1026.19 260 1028.5C201.09 1041.52 120.635 1028.24 79.1418 1009.5C-3.33405 972.243 -7.81506 814.779 14.0843 745.534C27.9154 701.8 26.4979 689.745 29.5 690C103.313 696.276 131 611 139.076 570.077C157.129 478.604 24.7117 504.846 71.4576 452.412Z" fill="#7538FF"/>
<path fill-rule="evenodd" clip-rule="evenodd" d="M198.005 -1.45153C194.982 -20.2156 196.582 -1.45153 216.509 -5.77285C233.589 33.12 222.19 76.3671 219.355 84.9748C199.429 145.473 91.254 203.091 78.4439 244.863C56.5747 316.175 58.517 339.932 31.4734 339.932C-11.227 339.932 40.4508 245.51 1.58309 260.708C-123.671 309.683 -67.7973 595.309 -104.804 539.132C-137.541 446.944 -91.9152 280.252 -22.6139 234.78C97.3189 156.085 216.509 113.409 198.005 -1.45153Z" fill="#FFC300"/>
<path fill-rule="evenodd" clip-rule="evenodd" d="M1736.44 100.896C1772.35 106.132 1782.2 98.0167 1786.24 73.5484C1789.78 52.0989 1722.98 26.0507 1771.44 11.6575C1817.29 -1.96233 1835.47 67.4625 1821.24 139.757C1806.83 212.925 1952.54 325.368 1950.45 390.2C1947.76 473.68 1955.38 518.513 1950.45 572.994C1946.93 611.856 1879.11 685.261 1811.81 659.353C1797.77 653.948 1884.5 663.671 1897.96 552.843C1927.57 388.76 1829.31 226.117 1685.3 126.803C1612.61 54.8369 1685.3 46.2009 1671.84 -7.05412C1692.74 -27.4563 1706.83 -17.1293 1706.83 -7.05426C1687.99 41.8831 1706.83 96.5774 1736.44 100.896Z" fill="#FFC300"/>
<path fill-rule="evenodd" clip-rule="evenodd" d="M1892.59 408.305C1935.75 594.004 1866.12 643.059 1814.6 658.709C1788.1 666.757 1640.09 620.016 1649.86 703.474C1653.88 737.751 1852.39 932.362 1649.86 1019.42C1608.14 1037.36 1589.8 910.629 1452.92 1031.35C1356.18 1116.66 1362.13 1061.15 1405.43 970.242C1405.43 970.242 1604.09 992.448 1621.93 862.939C1642.88 710.819 1554.88 630.86 1665.23 620.016C1925.03 594.484 1833.09 344.307 1800.71 293.636C1675.01 96.9132 1440.35 131.19 1466.89 -13.3708C1493.03 -13.5254 1624.48 -26.6287 1670.9 -7.68781C1678.94 11.4963 1665.8 33.7096 1656.25 52.8937C1632.51 100.584 1710.14 138.691 1756.02 183.352C1835.63 260.848 1876.09 337.314 1892.59 408.305Z" fill="#0088FE"/>
<path fill-rule="evenodd" clip-rule="evenodd" d="M1121.58 730.998C1159.33 711.515 1269.98 838.156 1245.25 952.273C1245.25 1090.79 1463.6 1081.7 1333.77 1081.7C1204.56 1081.7 1134.48 1242.01 1072 1151.56C1095.43 1134.86 1163.24 938.356 1121.58 730.998Z" fill="#7538FF"/>
<path fill-rule="evenodd" clip-rule="evenodd" d="M1443.62 746.683C1523.82 761.877 1481.13 901.389 1464.31 969.073C1438.78 1071.85 1344.03 1104.44 1244.41 1104.44C1132.65 1104.44 1237.94 984.267 1237.94 882.051C1237.94 797.509 1402.86 738.961 1443.62 746.683Z" fill="#FFC300"/>
<path d="M1888 865L1937 1119H1918L1856.5 829L1833 667.5C1832.2 651.9 1823.33 627.333 1819 617C1839.8 623.4 1843.33 653.333 1842.5 667.5L1848.5 687L1863 753.5L1888 865Z" fill="#260E4D" stroke="black"/>
<path d="M1843 667H1832.5C1833.69 660.668 1824.03 632.28 1819.16 618.441L1818 616C1842 624 1844.33 654.333 1843 667Z" fill="#FA3465"/>
<path d="M1819 618C1819.05 618.145 1819.1 618.293 1819.16 618.441M1819.16 618.441C1824.03 632.28 1833.69 660.668 1832.5 667H1843C1844.33 654.333 1842 624 1818 616L1819.16 618.441Z" stroke="black" stroke-width="0.3"/>
<path d="M1842.5 667H1832.5L1836.5 694.5L1846 762C1847.2 763.2 1859.17 761.5 1865 760.5L1858 729C1855.6 708.6 1846.67 679.167 1842.5 667Z" fill="#8B8484" stroke="black" stroke-width="0.3"/>
<path d="M1841.47 802.959C1849.03 806.26 1897.24 1012.93 1920.41 1120.19L1889.41 1120.7L1835.68 932.224L1806.04 806.964L1774.56 691.518L1752.81 618.482L1805.08 604.905L1811.14 637.588L1820.81 705.929L1841.47 802.959Z" fill="#3E2E57" stroke="black" stroke-width="0.3"/>
<path d="M1806.5 807.941C1816.9 809.506 1833.83 804.679 1841 802.07L1833.5 763.422L1820 703.249L1806.5 604.427C1788.33 609.156 1752.1 618.614 1752.5 618.614C1752.9 618.614 1788.67 744.832 1806.5 807.941Z" fill="#8B8484" stroke="black" stroke-width="0.3"/>
<path d="M1806.9 605.75L1752.8 619.097L1740.92 583.72C1737.74 564.628 1738.61 544.144 1739.45 536.288L1745.92 536.096L1750.49 544.282C1750.38 540.696 1751.02 533.498 1754.47 533.396L1760.94 533.205L1768.99 549.118L1768.49 532.981L1780.23 528.718C1792.48 533.837 1803.11 582.205 1806.9 605.75Z" fill="#FFC300" stroke="black" stroke-width="0.3"/>
<path d="M1847.13 897.855C1847.35 899.119 1847.38 900.992 1847.2 903.474C1847.15 903.97 1847.11 904.581 1847.07 905.307C1847.02 906.034 1846.99 906.619 1846.96 907.064C1846.93 907.496 1846.88 907.936 1846.83 908.385C1846.74 909.266 1846.59 909.726 1846.36 909.766C1846.2 909.796 1846 909.709 1845.77 909.507C1845.55 909.302 1845.42 909.076 1845.37 908.828C1845.33 908.568 1845.34 907.931 1845.42 906.918C1845.5 905.903 1845.56 904.528 1845.58 902.794C1845.6 901.06 1845.5 899.254 1845.29 897.379C1845.26 897.006 1845.36 896.799 1845.6 896.757C1845.86 896.71 1846.16 896.826 1846.52 897.104C1846.88 897.38 1847.09 897.631 1847.13 897.855ZM1853.68 906.486C1854.58 906.18 1855.36 905.918 1856.03 905.702C1856.71 905.483 1857.21 905.345 1857.53 905.288C1857.86 905.229 1858.11 905.214 1858.29 905.244C1858.47 905.26 1858.58 905.35 1858.61 905.516C1858.67 905.846 1857.85 906.383 1856.14 907.127C1854.44 907.856 1853.18 908.295 1852.35 908.442C1851.98 908.508 1851.57 908.417 1851.11 908.169C1850.66 907.908 1850.41 907.6 1850.35 907.246C1850.29 906.962 1850.76 906.294 1851.74 905.241C1852.67 904.272 1853.55 903.176 1854.39 901.953C1854.79 901.37 1855.09 900.755 1855.31 900.108C1855.53 899.446 1855.6 898.867 1855.51 898.371C1855.42 897.863 1855.24 897.488 1854.96 897.244C1854.69 897.001 1854.35 896.914 1853.96 896.983C1853.57 897.053 1853.23 897.236 1852.93 897.533C1852.63 897.831 1852.39 898.117 1852.22 898.391C1852.05 898.653 1851.93 898.79 1851.87 898.8C1851.67 898.836 1851.42 898.789 1851.12 898.661C1850.81 898.532 1850.65 898.379 1850.62 898.202C1850.54 897.765 1850.81 897.216 1851.44 896.556C1852.08 895.894 1852.81 895.489 1853.63 895.341C1854.46 895.194 1855.2 895.367 1855.85 895.861C1856.51 896.341 1856.91 897.012 1857.07 897.874C1857.52 900.426 1855.81 903.492 1851.94 907.071C1852.22 906.985 1852.8 906.79 1853.68 906.486Z" fill="#2B526D"/>
<path d="M1829.76 977.203L1871.5 1120.26L1889.5 1120.26L1874.63 1067.28L1829.76 977.203Z" fill="#322F37" stroke="black" stroke-width="0.3"/>
<path d="M1831 979.5L1875 1069.5C1862.67 1025.67 1831.8 933.5 1831 919.5C1830.2 905.5 1800.83 836.333 1783 803.5L1732 677L1707 691L1831 979.5Z" fill="#534962" stroke="black" stroke-width="0.3"/>
<path d="M1732.74 675L1707 690.123C1708.21 698.466 1727.36 740.184 1736.78 760C1737.59 756.663 1752.6 749.918 1760 746.963L1732.74 675Z" fill="#8B8484" stroke="black" stroke-width="0.3"/>
<path d="M1732.5 677.5L1707 691L1682 632L1711 620L1732.5 677.5Z" fill="#F86F34" stroke="black" stroke-width="0.3"/>
<path d="M1793.5 853.568L1876 1135.57H1849L1768.5 864.568C1756.67 823.401 1733 739.668 1733 734.068C1733 728.468 1744 727.734 1749.5 728.068L1793.5 853.568Z" fill="#66577E" stroke="black" stroke-width="0.3"/>
<path d="M1749.5 728C1735.1 728 1732.5 732 1733 734C1731.4 735.2 1753.33 812.833 1764.5 851.5C1781.7 849.1 1787.67 843.167 1788.5 840.5L1749.5 728Z" fill="#AFA3A3" stroke="black" stroke-width="0.3"/>
<path d="M1749.26 728.57C1747.9 726.87 1737.69 732.061 1732.75 734.868C1724.39 716.353 1721.8 701.667 1721.55 696.639C1718.65 666.222 1733.53 656.97 1741.33 656.146C1736.29 669.721 1738.58 685.333 1740.36 691.443C1743.3 690.485 1750.95 730.694 1749.26 728.57Z" fill="#0088FE" stroke="black" stroke-width="0.3"/>
<path d="M1808.06 941.003C1808.4 941.953 1808.18 943.058 1807.39 944.319C1806.6 945.568 1805.6 946.406 1804.4 946.832C1803.69 947.085 1803.02 947.057 1802.39 946.747C1801.76 946.422 1801.3 945.852 1801.02 945.038C1800.72 944.212 1800.64 943.134 1800.76 941.803C1800.9 940.468 1801.15 939.232 1801.53 938.093C1801.9 936.955 1802.29 935.962 1802.7 935.115C1803.13 934.264 1803.45 933.798 1803.68 933.718C1803.91 933.633 1804.17 933.613 1804.44 933.657C1804.7 933.69 1804.86 933.768 1804.9 933.893C1804.94 934.006 1804.84 934.334 1804.6 934.878C1803.65 937.038 1803.02 938.688 1802.72 939.829C1804.01 939.496 1805.17 939.459 1806.19 939.72C1807.22 939.965 1807.85 940.393 1808.06 941.003ZM1804.07 945.404C1804.81 945.139 1805.45 944.614 1805.97 943.829C1806.51 943.04 1806.67 942.341 1806.45 941.73C1806.3 941.3 1805.85 941.013 1805.11 940.868C1804.38 940.72 1803.49 940.762 1802.44 940.996C1802.18 942.451 1802.23 943.664 1802.57 944.637C1802.71 945.021 1802.91 945.275 1803.17 945.399C1803.44 945.519 1803.74 945.521 1804.07 945.404Z" fill="#143A55"/>
<path d="M1735.73 771L1844.23 1119H1816.23L1697.73 782.5L1649.73 622C1652 622.5 1660.18 622.13 1663 621C1665.5 620 1671.56 618 1673.73 616L1735.73 771Z" fill="#260E4C" stroke="black" stroke-width="0.3"/>
<path d="M1673.5 615.5C1667.42 621.039 1654.69 622.391 1649 622L1655 640L1658.5 652.5C1661.41 662.53 1661.5 663.5 1675.09 708.804C1688.61 753.888 1697.92 785.705 1702.34 795.584C1723.25 794.595 1735.6 785.419 1739.17 780.955L1730 755L1673.5 615.5Z" fill="#AFA3A3" stroke="black" stroke-width="0.3"/>
<path d="M1674 617.129L1650.19 626C1639.14 595.248 1633.21 566.861 1631.62 556.512C1632.38 547.838 1626.86 530.557 1624 523C1646.48 528.125 1666.7 587.888 1674 617.129Z" fill="#7538FF" stroke="black" stroke-width="0.3"/>
<path d="M1692.11 853.568L1798.48 1121.95L1816.97 1121.48L1715.1 852.983L1671.52 732.554L1653.18 739.023L1661.79 762.811L1692.11 853.568Z" fill="#3E2E57" stroke="black" stroke-width="0.3"/>
<path d="M1672 732L1652.5 739L1665.5 774.5L1689.5 846.5C1703.1 844.5 1708.5 839 1709.5 836.5L1695.5 797.5L1672 732Z" fill="#8B8484" stroke="black" stroke-width="0.3"/>
<path d="M1672 732L1652.5 739C1644.7 723.876 1641.67 706.671 1641.24 700.185L1637.26 692.929L1642.09 690.108L1646.24 692.342C1646.01 691.355 1646.23 689.136 1648.98 688.155C1651.72 687.175 1666.32 716.671 1672 732Z" fill="#CA46EB" stroke="black" stroke-width="0.3"/>
<path d="M1747.41 974.285C1748.18 973.951 1748.86 973.664 1749.43 973.425C1750.02 973.184 1750.45 973.026 1750.73 972.954C1751.02 972.878 1751.25 972.847 1751.4 972.861C1751.57 972.862 1751.67 972.935 1751.71 973.079C1751.78 973.368 1751.09 973.902 1749.63 974.681C1748.18 975.446 1747.09 975.924 1746.37 976.113C1746.05 976.196 1745.67 976.145 1745.25 975.958C1744.83 975.758 1744.59 975.503 1744.5 975.193C1744.44 974.946 1744.81 974.321 1745.6 973.319C1746.35 972.395 1747.06 971.362 1747.72 970.219C1748.03 969.675 1748.26 969.108 1748.4 968.519C1748.55 967.918 1748.57 967.4 1748.46 966.967C1748.34 966.523 1748.15 966.203 1747.89 966.006C1747.63 965.81 1747.33 965.756 1746.99 965.845C1746.65 965.934 1746.36 966.121 1746.11 966.406C1745.87 966.69 1745.68 966.96 1745.54 967.215C1745.41 967.46 1745.32 967.589 1745.27 967.602C1745.09 967.648 1744.86 967.624 1744.59 967.532C1744.31 967.439 1744.15 967.315 1744.11 967.16C1744.01 966.779 1744.21 966.273 1744.72 965.644C1745.24 965.013 1745.86 964.602 1746.58 964.414C1747.3 964.225 1747.97 964.326 1748.58 964.718C1749.2 965.097 1749.6 965.663 1749.8 966.417C1750.38 968.646 1749.09 971.482 1745.91 974.926C1746.15 974.83 1746.65 974.617 1747.41 974.285Z" fill="#2B526D"/>
<path d="M1631.5 844L1798.49 1124.07L1732.27 942.286L1669.74 833.017L1609 729.5C1600.5 706.5 1581.78 667.304 1572.01 652.596L1532.91 675.428C1535.67 685.84 1581 749 1631.5 844Z" fill="#545355" stroke="black" stroke-width="0.3"/>
<path d="M1572 652L1532.5 675.5L1549 703.5L1583 759L1630 841.5C1644.8 839.1 1659.5 828.833 1665 824L1644 788.5L1609 729.5C1602.2 708.3 1581.5 669 1572 652Z" fill="#C4C4C4" stroke="black" stroke-width="0.3"/>
<path d="M1572.5 652.5L1532.5 676L1492.32 603.535L1499.04 598.165L1506.34 594.265L1511 588.004L1516.51 597.22L1516 587.734L1520.22 582.498C1522.58 586.042 1526.59 590.966 1523.71 582.309C1520.84 573.651 1524.52 578.594 1526.71 582.147L1534.79 592.726L1534.01 578.247L1572.5 652.5Z" fill="#00C381" stroke="black" stroke-width="0.3"/>
<path d="M1577.5 734.618L1791.5 1116H1774L1720 1021.27L1645.5 887.865L1566 739.081L1577.5 734.618Z" fill="#413751" stroke="black" stroke-width="0.3"/>
<path d="M1653 867.531L1577 733.13L1572 736.601L1565 738.585L1639 876.458C1649 873.284 1652.5 869.184 1653 867.531Z" fill="#AFA3A3" stroke="black" stroke-width="0.3"/>
<path d="M1554.86 695.121L1577.41 733.655L1571.84 737.122L1565.36 739.139C1559.49 735.931 1553.15 713.893 1550.71 703.275C1548.94 699.568 1550.05 691.459 1550.82 687.868L1554.86 695.121Z" fill="white" stroke="black" stroke-width="0.3"/>
</svg>
