<svg width="581" height="1262" viewBox="0 0 581 1262" fill="none" xmlns="http://www.w3.org/2000/svg">
<mask id="mask0_25_17" style="mask-type:alpha" maskUnits="userSpaceOnUse" x="51" y="-44" width="161" height="161">
<circle cx="131.5" cy="36.5" r="80.5" fill="#7636FE"/>
</mask>
<g mask="url(#mask0_25_17)">
<rect x="51" y="-44" width="162" height="161" fill="#FFC301"/>
<rect x="51" y="-8" width="162" height="9" fill="#7636FE"/>
<rect x="51" y="10" width="162" height="9" fill="#7636FE"/>
<rect x="51" y="28" width="162" height="9" fill="#7636FE"/>
<rect x="51" y="46" width="162" height="9" fill="#7636FE"/>
<rect x="51" y="64" width="162" height="9" fill="#7636FE"/>
<rect x="51" y="82" width="162" height="9" fill="#7636FE"/>
<rect x="51" y="100" width="162" height="9" fill="#7636FE"/>
</g>
<mask id="path-10-inside-1_25_17" fill="white">
<path d="M219 152C219 128.625 223.604 105.478 232.549 83.8823C241.495 62.2864 254.606 42.6638 271.135 26.1349C287.664 9.60612 307.286 -3.50526 328.882 -12.4506C350.478 -21.3959 373.625 -26 397 -26C420.375 -26 443.522 -21.3959 465.118 -12.4505C486.714 -3.50515 506.336 9.60625 522.865 26.1351C539.394 42.6639 552.505 62.2865 561.451 83.8825C570.396 105.478 575 128.625 575 152L397 152L219 152Z"/>
</mask>
<path d="M219 152C219 128.625 223.604 105.478 232.549 83.8823C241.495 62.2864 254.606 42.6638 271.135 26.1349C287.664 9.60612 307.286 -3.50526 328.882 -12.4506C350.478 -21.3959 373.625 -26 397 -26C420.375 -26 443.522 -21.3959 465.118 -12.4505C486.714 -3.50515 506.336 9.60625 522.865 26.1351C539.394 42.6639 552.505 62.2865 561.451 83.8825C570.396 105.478 575 128.625 575 152L397 152L219 152Z" stroke="#8569CF" stroke-width="4" mask="url(#path-10-inside-1_25_17)"/>
<mask id="mask1_25_17" style="mask-type:alpha" maskUnits="userSpaceOnUse" x="51" y="-44" width="161" height="161">
<circle cx="131.5" cy="36.5" r="80.5" fill="#7636FE"/>
</mask>
<g mask="url(#mask1_25_17)">
<rect x="51" y="-44" width="162" height="161" fill="#FFC301"/>
<rect x="51" y="-8" width="162" height="9" fill="#7636FE"/>
<rect x="51" y="10" width="162" height="9" fill="#7636FE"/>
<rect x="51" y="28" width="162" height="9" fill="#7636FE"/>
<rect x="51" y="46" width="162" height="9" fill="#7636FE"/>
<rect x="51" y="64" width="162" height="9" fill="#7636FE"/>
<rect x="51" y="82" width="162" height="9" fill="#7636FE"/>
<rect x="51" y="100" width="162" height="9" fill="#7636FE"/>
</g>
<mask id="mask2_25_17" style="mask-type:alpha" maskUnits="userSpaceOnUse" x="51" y="481" width="161" height="161">
<circle cx="131.5" cy="561.5" r="80.5" fill="#7636FE"/>
</mask>
<g mask="url(#mask2_25_17)">
<rect x="51" y="481" width="162" height="161" fill="#012A51"/>
<rect x="51" y="481" width="162" height="9" fill="#4EB296"/>
<rect x="51" y="499" width="162" height="9" fill="#4EB296"/>
<rect x="51" y="517" width="162" height="9" fill="#4EB296"/>
<rect x="51" y="535" width="162" height="9" fill="#4EB296"/>
<rect x="51" y="553" width="162" height="9" fill="#4EB296"/>
<rect x="51" y="571" width="162" height="9" fill="#4EB296"/>
<rect x="51" y="589" width="162" height="9" fill="#4EB296"/>
<rect x="51" y="607" width="162" height="9" fill="#4EB296"/>
<rect x="51" y="625" width="162" height="9" fill="#4EB296"/>
</g>
<path d="M218 207C218 228.483 209.466 249.085 194.276 264.276C179.085 279.466 158.483 288 137 288C115.517 288 94.9148 279.466 79.7244 264.276C64.5339 249.085 56 228.483 56 207L137 207H218Z" fill="#002C51"/>
<path d="M310 1201.5C310 1217.55 303.626 1232.93 292.28 1244.28C280.934 1255.63 265.546 1262 249.5 1262C233.454 1262 218.066 1255.63 206.72 1244.28C195.374 1232.93 189 1217.55 189 1201.5L249.5 1201.5H310Z" fill="#0089FD"/>
<mask id="path-33-inside-2_25_17" fill="white">
<path d="M219 153C219 129.625 223.604 106.478 232.549 84.8823C241.495 63.2864 254.606 43.6638 271.135 27.1349C287.664 10.6061 307.286 -2.50526 328.882 -11.4506C350.478 -20.3959 373.625 -25 397 -25C420.375 -25 443.522 -20.3959 465.118 -11.4505C486.714 -2.50515 506.336 10.6063 522.865 27.1351C539.394 43.6639 552.505 63.2865 561.451 84.8825C570.396 106.478 575 129.625 575 153L397 153L219 153Z"/>
</mask>
<path d="M219 153C219 129.625 223.604 106.478 232.549 84.8823C241.495 63.2864 254.606 43.6638 271.135 27.1349C287.664 10.6061 307.286 -2.50526 328.882 -11.4506C350.478 -20.3959 373.625 -25 397 -25C420.375 -25 443.522 -20.3959 465.118 -11.4505C486.714 -2.50515 506.336 10.6063 522.865 27.1351C539.394 43.6639 552.505 63.2865 561.451 84.8825C570.396 106.478 575 129.625 575 153L397 153L219 153Z" stroke="#8569CF" stroke-width="4" mask="url(#path-33-inside-2_25_17)"/>
<rect x="400" y="331" width="181" height="181" fill="#FA3465"/>
<rect x="219" y="331" width="181" height="181" fill="#7538FE"/>
<rect x="400" y="692" width="181" height="181" fill="#00213D"/>
<rect x="400" y="873" width="181" height="181" fill="#26AC6E"/>
<rect x="219" y="511" width="181" height="181" fill="#00213D"/>
<rect x="219" y="150" width="181" height="181" fill="#0088FE"/>
<rect x="400" y="150" width="181" height="181" fill="white"/>
<path d="M399.5 692C375.796 692 352.325 687.344 330.426 678.298C308.526 669.252 288.628 655.994 271.867 639.279C255.106 622.565 241.811 602.722 232.74 580.883C223.669 559.044 219 535.638 219 512L399.5 512L399.5 692Z" fill="#0088FE"/>
<path d="M581.5 1233C557.796 1233 534.325 1228.34 512.426 1219.3C490.526 1210.25 470.628 1196.99 453.867 1180.28C437.106 1163.56 423.811 1143.72 414.74 1121.88C405.669 1100.04 401 1076.64 401 1053L581.5 1053L581.5 1233Z" fill="#FA3465"/>
<path d="M219 361C238.83 361 258.465 364.893 276.785 372.456C295.105 380.019 311.751 391.105 325.773 405.08C339.795 419.056 350.917 435.647 358.506 453.906C366.094 472.166 370 491.736 370 511.5L219 511.5V361Z" fill="#FFC300"/>
<path d="M400 692C423.901 692 447.567 696.695 469.648 705.816C491.73 714.937 511.793 728.306 528.693 745.16C545.594 762.014 559 782.022 568.146 804.043C577.292 826.064 582 849.665 582 873.5L400 873.5V692Z" fill="#FFC300"/>
<path d="M582 872.5C582 896.335 577.292 919.936 568.146 941.957C559 963.978 545.594 983.986 528.693 1000.84C511.793 1017.69 491.73 1031.06 469.648 1040.18C447.567 1049.31 423.901 1054 400 1054L400 872.5H582Z" fill="#FFC300"/>
<path d="M400 332C423.638 332 447.044 336.656 468.883 345.702C490.722 354.748 510.565 368.006 527.279 384.721C543.994 401.435 557.252 421.278 566.298 443.117C575.344 464.956 580 488.362 580 512L400 512V332Z" fill="#00C381"/>
<path d="M125 866.5C125 830.033 139.487 795.059 165.273 769.273C191.059 743.487 226.033 729 262.5 729C298.967 729 333.941 743.487 359.727 769.273C385.513 795.059 400 830.033 400 866.5L262.5 866.5L125 866.5Z" fill="#7538FE"/>
<mask id="path-48-inside-3_25_17" fill="white">
<path d="M0 867.5C3.18807e-06 831.033 14.4866 796.059 40.2728 770.273C66.0591 744.487 101.033 730 137.5 730C173.967 730 208.941 744.487 234.727 770.273C260.513 796.059 275 831.033 275 867.5L137.5 867.5L0 867.5Z"/>
</mask>
<path d="M0 867.5C3.18807e-06 831.033 14.4866 796.059 40.2728 770.273C66.0591 744.487 101.033 730 137.5 730C173.967 730 208.941 744.487 234.727 770.273C260.513 796.059 275 831.033 275 867.5L137.5 867.5L0 867.5Z" stroke="black" stroke-width="2" mask="url(#path-48-inside-3_25_17)"/>
</svg>
